<svg width="301" height="75" viewBox="0 0 301 75" fill="none" xmlns="http://www.w3.org/2000/svg">
<path d="M33.4 13V14L13.45 47.25H23.25C24.8167 47.25 26.0833 47.0833 27.05 46.75C28.05 46.4167 28.8333 45.9 29.4 45.2C30 44.4667 30.45 43.5 30.75 42.3C31.05 41.1 31.2833 39.6333 31.45 37.9H32.6C32.5 38.9333 32.45 40.3 32.45 42C32.45 42.6333 32.4667 43.55 32.5 44.75C32.5667 45.9167 32.6667 47.1333 32.8 48.4C31.5667 48.3333 30.2167 48.3 28.75 48.3C27.2833 48.2667 25.8167 48.25 24.35 48.25C22.9167 48.25 21.5833 48.25 20.35 48.25C18.3833 48.25 16.3 48.2667 14.1 48.3C11.9333 48.3 9.9 48.3333 8 48.4V47.4L28.1 14.15H18.35C16.7833 14.15 15.5 14.3167 14.5 14.65C13.5333 14.9833 12.75 15.5167 12.15 16.25C11.5833 16.95 11.15 17.9 10.85 19.1C10.55 20.3 10.3167 21.7667 10.15 23.5H9C9.06667 22.9667 9.1 22.35 9.1 21.65C9.13333 20.95 9.15 20.2 9.15 19.4C9.15 18.7667 9.11667 17.8667 9.05 16.7C9.01667 15.5 8.93333 14.2667 8.8 13C10.0333 13.0333 11.3833 13.0667 12.85 13.1C14.3167 13.1333 15.7833 13.15 17.25 13.15C18.7167 13.15 20.05 13.15 21.25 13.15C23.15 13.15 25.1833 13.15 27.35 13.15C29.55 13.1167 31.5667 13.0667 33.4 13Z" fill="#F4F4F4"/>
<path d="M62.6375 13C62.5042 14.1667 62.4042 15.3 62.3375 16.4C62.3042 17.5 62.2875 18.3333 62.2875 18.9C62.2875 19.5 62.3042 20.0833 62.3375 20.65C62.3708 21.1833 62.4042 21.6333 62.4375 22H61.2875C61.0875 20.0333 60.8042 18.4833 60.4375 17.35C60.0708 16.1833 59.4375 15.3667 58.5375 14.9C57.6708 14.4 56.3542 14.15 54.5875 14.15H50.4375C49.3042 14.15 48.4375 14.25 47.8375 14.45C47.2708 14.6167 46.8875 15 46.6875 15.6C46.4875 16.1667 46.3875 17.0667 46.3875 18.3V43.1C46.3875 44.3 46.4875 45.2 46.6875 45.8C46.8875 46.4 47.2708 46.8 47.8375 47C48.4375 47.1667 49.3042 47.25 50.4375 47.25H54.0875C56.1875 47.25 57.7708 46.9667 58.8375 46.4C59.9375 45.8333 60.7208 44.9167 61.1875 43.65C61.6875 42.35 62.0542 40.6 62.2875 38.4H63.4375C63.3375 39.3 63.2875 40.5 63.2875 42C63.2875 42.6333 63.3042 43.55 63.3375 44.75C63.4042 45.9167 63.5042 47.1333 63.6375 48.4C61.9375 48.3333 60.0208 48.3 57.8875 48.3C55.7542 48.2667 53.8542 48.25 52.1875 48.25C51.4542 48.25 50.5042 48.25 49.3375 48.25C48.2042 48.25 46.9708 48.2667 45.6375 48.3C44.3042 48.3 42.9542 48.3167 41.5875 48.35C40.2208 48.35 38.9208 48.3667 37.6875 48.4V47.4C38.8208 47.3333 39.6708 47.2 40.2375 47C40.8375 46.8 41.2375 46.4 41.4375 45.8C41.6375 45.2 41.7375 44.3 41.7375 43.1V18.3C41.7375 17.0667 41.6375 16.1667 41.4375 15.6C41.2375 15 40.8375 14.6 40.2375 14.4C39.6708 14.1667 38.8208 14.0333 37.6875 14V13C38.9208 13.0333 40.2208 13.0667 41.5875 13.1C42.9542 13.1 44.3042 13.1167 45.6375 13.15C46.9708 13.15 48.2042 13.15 49.3375 13.15C50.5042 13.15 51.4542 13.15 52.1875 13.15C53.7208 13.15 55.4542 13.15 57.3875 13.15C59.3542 13.1167 61.1042 13.0667 62.6375 13ZM54.0375 30.1C54.0375 30.1 54.0375 30.2667 54.0375 30.6C54.0375 30.9333 54.0375 31.1 54.0375 31.1H44.8875C44.8875 31.1 44.8875 30.9333 44.8875 30.6C44.8875 30.2667 44.8875 30.1 44.8875 30.1H54.0375ZM55.4875 23.5C55.3542 25.4 55.2875 26.85 55.2875 27.85C55.3208 28.85 55.3375 29.7667 55.3375 30.6C55.3375 31.4333 55.3542 32.35 55.3875 33.35C55.4208 34.35 55.5042 35.8 55.6375 37.7H54.4875C54.3542 36.6333 54.1875 35.6 53.9875 34.6C53.8208 33.5667 53.4208 32.7333 52.7875 32.1C52.1875 31.4333 51.1542 31.1 49.6875 31.1V30.1C50.7875 30.1 51.6208 29.8833 52.1875 29.45C52.7875 28.9833 53.2208 28.4 53.4875 27.7C53.7542 27 53.9375 26.2833 54.0375 25.55C54.1375 24.7833 54.2375 24.1 54.3375 23.5H55.4875Z" fill="#F4F4F4"/>
<path d="M99.5563 13V14C98.4229 14.0333 97.5563 14.2 96.9563 14.5C96.3896 14.8 96.0062 15.2833 95.8063 15.95C95.6063 16.6167 95.5063 17.5667 95.5063 18.8V48.65C95.3063 48.65 95.1062 48.65 94.9062 48.65C94.7396 48.65 94.5563 48.65 94.3563 48.65L73.3563 16.2V42.6C73.3563 43.8 73.4563 44.75 73.6562 45.45C73.8896 46.1167 74.3229 46.6 74.9563 46.9C75.6229 47.1667 76.6062 47.3333 77.9062 47.4V48.4C77.3063 48.3333 76.5229 48.3 75.5563 48.3C74.5896 48.2667 73.6729 48.25 72.8063 48.25C71.9729 48.25 71.1229 48.2667 70.2562 48.3C69.4229 48.3 68.7229 48.3333 68.1562 48.4V47.4C69.2896 47.3333 70.1396 47.1667 70.7063 46.9C71.3063 46.6 71.7062 46.1167 71.9062 45.45C72.1062 44.75 72.2063 43.8 72.2063 42.6V18.3C72.2063 17.0667 72.1062 16.1667 71.9062 15.6C71.7062 15 71.3063 14.6 70.7063 14.4C70.1396 14.1667 69.2896 14.0333 68.1562 14V13C68.7229 13.0333 69.4229 13.0667 70.2562 13.1C71.1229 13.1333 71.9729 13.15 72.8063 13.15C73.5396 13.15 74.2396 13.1333 74.9062 13.1C75.5729 13.0667 76.1729 13.0333 76.7063 13L94.3563 40.2V18.8C94.3563 17.5667 94.2396 16.6167 94.0062 15.95C93.8063 15.2833 93.3729 14.8 92.7063 14.5C92.0729 14.2 91.1062 14.0333 89.8063 14V13C90.4062 13.0333 91.1896 13.0667 92.1562 13.1C93.1562 13.1333 94.0729 13.15 94.9062 13.15C95.7729 13.15 96.6229 13.1333 97.4563 13.1C98.3229 13.0667 99.0229 13.0333 99.5563 13Z" fill="#F4F4F4"/>
<path d="M18.2282 65.812V65.392C18.7042 65.364 19.0612 65.308 19.2992 65.224C19.5512 65.14 19.7192 64.972 19.8032 64.72C19.8872 64.468 19.9292 64.09 19.9292 63.586V53.17C19.9292 52.652 19.8872 52.274 19.8032 52.036C19.7192 51.784 19.5512 51.616 19.2992 51.532C19.0612 51.434 18.7042 51.378 18.2282 51.364V50.944C18.5502 50.958 18.9562 50.972 19.4462 50.986C19.9362 51 20.4192 51.007 20.8952 51.007C21.4412 51.007 21.9522 51 22.4282 50.986C22.9042 50.972 23.2892 50.958 23.5832 50.944V51.364C23.1072 51.378 22.7432 51.434 22.4912 51.532C22.2532 51.616 22.0922 51.784 22.0082 52.036C21.9242 52.274 21.8822 52.652 21.8822 53.17V63.586C21.8822 64.09 21.9242 64.468 22.0082 64.72C22.0922 64.972 22.2532 65.14 22.4912 65.224C22.7432 65.308 23.1072 65.364 23.5832 65.392V65.812C23.2892 65.784 22.9042 65.77 22.4282 65.77C21.9522 65.756 21.4412 65.749 20.8952 65.749C20.4192 65.749 19.9362 65.756 19.4462 65.77C18.9562 65.77 18.5502 65.784 18.2282 65.812ZM9.4502 65.812V65.392C9.9262 65.364 10.2832 65.308 10.5212 65.224C10.7732 65.14 10.9412 64.972 11.0252 64.72C11.1092 64.468 11.1512 64.09 11.1512 63.586V53.17C11.1512 52.652 11.1092 52.274 11.0252 52.036C10.9412 51.784 10.7732 51.616 10.5212 51.532C10.2832 51.434 9.9262 51.378 9.4502 51.364V50.944C9.7442 50.958 10.1292 50.972 10.6052 50.986C11.0812 51 11.5922 51.007 12.1382 51.007C12.6282 51.007 13.1112 51 13.5872 50.986C14.0772 50.972 14.4832 50.958 14.8052 50.944V51.364C14.3292 51.378 13.9652 51.434 13.7132 51.532C13.4752 51.616 13.3142 51.784 13.2302 52.036C13.1462 52.274 13.1042 52.652 13.1042 53.17V63.586C13.1042 64.09 13.1462 64.468 13.2302 64.72C13.3142 64.972 13.4752 65.14 13.7132 65.224C13.9652 65.308 14.3292 65.364 14.8052 65.392V65.812C14.4832 65.784 14.0772 65.77 13.5872 65.77C13.1112 65.756 12.6282 65.749 12.1382 65.749C11.5922 65.749 11.0812 65.756 10.6052 65.77C10.1292 65.77 9.7442 65.784 9.4502 65.812ZM12.3692 58.546V58.126H20.6642V58.546H12.3692Z" fill="#F4F4F4"/>
<path d="M36.2887 50.65C37.6187 50.65 38.7807 50.951 39.7747 51.553C40.7827 52.155 41.5597 53.023 42.1057 54.157C42.6657 55.277 42.9457 56.642 42.9457 58.252C42.9457 59.82 42.6587 61.192 42.0847 62.368C41.5247 63.544 40.7407 64.461 39.7327 65.119C38.7247 65.777 37.5697 66.106 36.2677 66.106C34.9377 66.106 33.7687 65.805 32.7607 65.203C31.7667 64.601 30.9897 63.733 30.4297 62.599C29.8837 61.465 29.6107 60.1 29.6107 58.504C29.6107 56.936 29.8977 55.564 30.4717 54.388C31.0457 53.212 31.8297 52.295 32.8237 51.637C33.8317 50.979 34.9867 50.65 36.2887 50.65ZM36.2047 51.028C35.2947 51.028 34.5037 51.343 33.8317 51.973C33.1597 52.603 32.6347 53.471 32.2567 54.577C31.8927 55.683 31.7107 56.964 31.7107 58.42C31.7107 59.904 31.9137 61.199 32.3197 62.305C32.7397 63.397 33.2997 64.244 33.9997 64.846C34.7137 65.434 35.4977 65.728 36.3517 65.728C37.2617 65.728 38.0527 65.413 38.7247 64.783C39.3967 64.153 39.9147 63.285 40.2787 62.179C40.6567 61.059 40.8457 59.778 40.8457 58.336C40.8457 56.838 40.6357 55.543 40.2157 54.451C39.8097 53.359 39.2567 52.519 38.5567 51.931C37.8567 51.329 37.0727 51.028 36.2047 51.028Z" fill="#F4F4F4"/>
<path d="M56.1591 50.65C57.0691 50.65 57.8041 50.79 58.3641 51.07C58.9241 51.336 59.4491 51.651 59.9391 52.015C60.1211 52.155 60.2611 52.225 60.3591 52.225C60.6251 52.225 60.8001 51.798 60.8841 50.944H61.3671C61.3391 51.462 61.3181 52.092 61.3041 52.834C61.2901 53.576 61.2831 54.556 61.2831 55.774H60.8001C60.7021 55.186 60.5831 54.619 60.4431 54.073C60.3031 53.527 60.0721 53.058 59.7501 52.666C59.3441 52.148 58.8121 51.749 58.1541 51.469C57.4961 51.175 56.8171 51.028 56.1171 51.028C55.4171 51.028 54.7801 51.203 54.2061 51.553C53.6461 51.889 53.1631 52.379 52.7571 53.023C52.3511 53.667 52.0361 54.444 51.8121 55.354C51.6021 56.25 51.4971 57.265 51.4971 58.399C51.4971 60.919 51.9031 62.767 52.7151 63.943C53.5271 65.105 54.7871 65.686 56.4951 65.686C56.9991 65.686 57.4331 65.616 57.7971 65.476C58.1751 65.322 58.4691 65.175 58.6791 65.035C58.9451 64.853 59.1131 64.685 59.1831 64.531C59.2531 64.363 59.2881 64.146 59.2881 63.88V61.864C59.2881 61.29 59.2321 60.863 59.1201 60.583C59.0081 60.303 58.7981 60.114 58.4901 60.016C58.1961 59.918 57.7551 59.862 57.1671 59.848V59.428C57.4191 59.442 57.7131 59.456 58.0491 59.47C58.3851 59.47 58.7351 59.477 59.0991 59.491C59.4771 59.491 59.8201 59.491 60.1281 59.491C60.5901 59.491 61.0031 59.484 61.3671 59.47C61.7451 59.456 62.0601 59.442 62.3121 59.428V59.848C62.0041 59.862 61.7731 59.911 61.6191 59.995C61.4651 60.079 61.3601 60.247 61.3041 60.499C61.2621 60.751 61.2411 61.136 61.2411 61.654V65.812H60.8211C60.8071 65.574 60.7511 65.315 60.6531 65.035C60.5691 64.755 60.4361 64.615 60.2541 64.615C60.1701 64.615 60.0861 64.636 60.0021 64.678C59.9181 64.72 59.7711 64.818 59.5611 64.972C59.0991 65.322 58.6091 65.602 58.0911 65.812C57.5731 66.008 56.9711 66.106 56.2851 66.106C54.8431 66.106 53.6041 65.812 52.5681 65.224C51.5461 64.622 50.7621 63.761 50.2161 62.641C49.6701 61.521 49.3971 60.184 49.3971 58.63C49.3971 56.992 49.6911 55.578 50.2791 54.388C50.8671 53.198 51.6651 52.281 52.6731 51.637C53.6951 50.979 54.8571 50.65 56.1591 50.65Z" fill="#F4F4F4"/>
<path d="M74.0117 50.839L79.1357 64.048C79.3457 64.58 79.5837 64.937 79.8497 65.119C80.1157 65.287 80.3607 65.378 80.5847 65.392V65.812C80.3047 65.784 79.9617 65.77 79.5557 65.77C79.1497 65.756 78.7437 65.749 78.3377 65.749C77.7917 65.749 77.2807 65.756 76.8047 65.77C76.3287 65.77 75.9437 65.784 75.6497 65.812V65.392C76.3637 65.364 76.8187 65.245 77.0147 65.035C77.2107 64.811 77.1687 64.342 76.8887 63.628L72.9827 53.191L73.3187 52.918L69.6647 62.41C69.4407 62.97 69.3077 63.446 69.2657 63.838C69.2237 64.216 69.2587 64.517 69.3707 64.741C69.4967 64.965 69.6997 65.126 69.9797 65.224C70.2737 65.322 70.6377 65.378 71.0717 65.392V65.812C70.6797 65.784 70.2667 65.77 69.8327 65.77C69.4127 65.756 69.0207 65.749 68.6567 65.749C68.3067 65.749 68.0057 65.756 67.7537 65.77C67.5157 65.77 67.2917 65.784 67.0817 65.812V65.392C67.3617 65.322 67.6487 65.161 67.9427 64.909C68.2367 64.643 68.5027 64.195 68.7407 63.565L73.6757 50.839C73.7317 50.839 73.7877 50.839 73.8437 50.839C73.8997 50.839 73.9557 50.839 74.0117 50.839ZM76.5737 59.764V60.184H70.3157L70.5257 59.764H76.5737Z" fill="#F4F4F4"/>
<path d="M85.1281 50.944C85.4221 50.958 85.8071 50.972 86.2831 50.986C86.7591 51 87.2281 51.007 87.6901 51.007C88.3481 51.007 88.9781 51 89.5801 50.986C90.1821 50.972 90.6091 50.965 90.8611 50.965C91.9951 50.965 92.9331 51.126 93.6751 51.448C94.4311 51.77 94.9911 52.211 95.3551 52.771C95.7331 53.317 95.9221 53.933 95.9221 54.619C95.9221 55.039 95.8381 55.487 95.6701 55.963C95.5021 56.439 95.2081 56.887 94.7881 57.307C94.3821 57.727 93.8221 58.077 93.1081 58.357C92.3941 58.623 91.4911 58.756 90.3991 58.756H88.3831V58.336H90.1891C91.1831 58.336 91.9391 58.182 92.4571 57.874C92.9891 57.552 93.3461 57.132 93.5281 56.614C93.7241 56.082 93.8221 55.494 93.8221 54.85C93.8221 53.744 93.5561 52.89 93.0241 52.288C92.5061 51.672 91.6101 51.364 90.3361 51.364C89.6921 51.364 89.2721 51.483 89.0761 51.721C88.8801 51.959 88.7821 52.442 88.7821 53.17V63.586C88.7821 64.09 88.8241 64.468 88.9081 64.72C88.9921 64.972 89.1531 65.14 89.3911 65.224C89.6431 65.308 90.0071 65.364 90.4831 65.392V65.812C90.1611 65.784 89.7551 65.77 89.2651 65.77C88.7891 65.756 88.3061 65.749 87.8161 65.749C87.2701 65.749 86.7591 65.756 86.2831 65.77C85.8071 65.77 85.4221 65.784 85.1281 65.812V65.392C85.6041 65.364 85.9611 65.308 86.1991 65.224C86.4511 65.14 86.6191 64.972 86.7031 64.72C86.7871 64.468 86.8291 64.09 86.8291 63.586V53.17C86.8291 52.652 86.7871 52.274 86.7031 52.036C86.6191 51.784 86.4511 51.616 86.1991 51.532C85.9611 51.434 85.6041 51.378 85.1281 51.364V50.944ZM88.4671 58.399C89.2231 58.427 89.8181 58.462 90.2521 58.504C90.6861 58.532 91.0361 58.56 91.3021 58.588C91.5821 58.616 91.8481 58.651 92.1001 58.693C93.0381 58.847 93.7101 59.134 94.1161 59.554C94.5361 59.96 94.8441 60.597 95.0401 61.465L95.5651 63.607C95.7051 64.223 95.8451 64.671 95.9851 64.951C96.1391 65.217 96.3701 65.343 96.6781 65.329C96.9161 65.315 97.1121 65.238 97.2661 65.098C97.4341 64.958 97.6091 64.769 97.7911 64.531L98.1061 64.762C97.8121 65.196 97.5041 65.532 97.1821 65.77C96.8741 65.994 96.4331 66.106 95.8591 66.106C95.3411 66.106 94.8861 65.952 94.4941 65.644C94.1021 65.336 93.8081 64.734 93.6121 63.838L93.1501 61.738C93.0241 61.136 92.8771 60.618 92.7091 60.184C92.5551 59.736 92.3311 59.386 92.0371 59.134C91.7571 58.882 91.3371 58.756 90.7771 58.756H88.5091L88.4671 58.399Z" fill="#F4F4F4"/>
<path d="M116 5.11325L113.113 8L116 10.8868L118.887 8L116 5.11325ZM116 69.8868L118.887 67L116 64.1133L113.113 67L116 69.8868ZM115.5 8V67H116.5V8H115.5Z" fill="#F4F4F4"/>
<path d="M142.868 48.772V48.252C143.457 48.2173 143.899 48.148 144.194 48.044C144.506 47.94 144.714 47.732 144.818 47.42C144.922 47.108 144.974 46.64 144.974 46.016V33.12C144.974 32.4787 144.922 32.0107 144.818 31.716C144.714 31.404 144.506 31.196 144.194 31.092C143.899 30.9707 143.457 30.9013 142.868 30.884V30.364C143.267 30.3813 143.769 30.3987 144.376 30.416C144.983 30.4333 145.581 30.442 146.17 30.442C146.846 30.442 147.479 30.4333 148.068 30.416C148.657 30.3987 149.134 30.3813 149.498 30.364V30.884C148.909 30.9013 148.458 30.9707 148.146 31.092C147.851 31.196 147.652 31.404 147.548 31.716C147.444 32.0107 147.392 32.4787 147.392 33.12V46.016C147.392 46.64 147.444 47.108 147.548 47.42C147.652 47.732 147.851 47.94 148.146 48.044C148.458 48.148 148.909 48.2173 149.498 48.252V48.772C149.134 48.7373 148.657 48.72 148.068 48.72C147.479 48.7027 146.846 48.694 146.17 48.694C145.581 48.694 144.983 48.7027 144.376 48.72C143.769 48.72 143.267 48.7373 142.868 48.772ZM132 48.772V48.252C132.589 48.2173 133.031 48.148 133.326 48.044C133.638 47.94 133.846 47.732 133.95 47.42C134.054 47.108 134.106 46.64 134.106 46.016V33.12C134.106 32.4787 134.054 32.0107 133.95 31.716C133.846 31.404 133.638 31.196 133.326 31.092C133.031 30.9707 132.589 30.9013 132 30.884V30.364C132.364 30.3813 132.841 30.3987 133.43 30.416C134.019 30.4333 134.652 30.442 135.328 30.442C135.935 30.442 136.533 30.4333 137.122 30.416C137.729 30.3987 138.231 30.3813 138.63 30.364V30.884C138.041 30.9013 137.59 30.9707 137.278 31.092C136.983 31.196 136.784 31.404 136.68 31.716C136.576 32.0107 136.524 32.4787 136.524 33.12V46.016C136.524 46.64 136.576 47.108 136.68 47.42C136.784 47.732 136.983 47.94 137.278 48.044C137.59 48.148 138.041 48.2173 138.63 48.252V48.772C138.231 48.7373 137.729 48.72 137.122 48.72C136.533 48.7027 135.935 48.694 135.328 48.694C134.652 48.694 134.019 48.7027 133.43 48.72C132.841 48.72 132.364 48.7373 132 48.772ZM135.614 39.776V39.256H145.884V39.776H135.614Z" fill="#F4F4F4"/>
<path d="M157.253 35.018C158.362 35.018 159.359 35.2607 160.243 35.746C161.127 36.2313 161.829 36.994 162.349 38.034C162.886 39.074 163.155 40.426 163.155 42.09C163.155 43.754 162.886 45.106 162.349 46.146C161.829 47.1687 161.127 47.9227 160.243 48.408C159.359 48.8933 158.362 49.136 157.253 49.136C156.161 49.136 155.164 48.8933 154.263 48.408C153.379 47.9227 152.668 47.1687 152.131 46.146C151.611 45.106 151.351 43.754 151.351 42.09C151.351 40.426 151.611 39.074 152.131 38.034C152.668 36.994 153.379 36.2313 154.263 35.746C155.164 35.2607 156.161 35.018 157.253 35.018ZM157.253 35.538C156.265 35.538 155.45 36.0493 154.809 37.072C154.185 38.0947 153.873 39.7673 153.873 42.09C153.873 44.4127 154.185 46.0853 154.809 47.108C155.45 48.1133 156.265 48.616 157.253 48.616C158.241 48.616 159.047 48.1133 159.671 47.108C160.312 46.0853 160.633 44.4127 160.633 42.09C160.633 39.7673 160.312 38.0947 159.671 37.072C159.047 36.0493 158.241 35.538 157.253 35.538Z" fill="#F4F4F4"/>
<path d="M173.707 35.018C174.314 35.018 174.842 35.1047 175.293 35.278C175.744 35.4513 176.116 35.694 176.411 36.006C176.74 36.3527 176.966 36.8033 177.087 37.358C177.208 37.9127 177.269 38.5973 177.269 39.412V46.354C177.269 47.082 177.416 47.576 177.711 47.836C178.023 48.096 178.534 48.226 179.245 48.226V48.772C178.95 48.7547 178.5 48.7373 177.893 48.72C177.286 48.6853 176.697 48.668 176.125 48.668C175.553 48.668 174.99 48.6853 174.435 48.72C173.898 48.7373 173.49 48.7547 173.213 48.772V48.226C173.837 48.226 174.279 48.096 174.539 47.836C174.799 47.576 174.929 47.082 174.929 46.354V38.84C174.929 38.3027 174.894 37.8087 174.825 37.358C174.756 36.9073 174.582 36.5433 174.305 36.266C174.028 35.9887 173.577 35.85 172.953 35.85C172.277 35.85 171.67 36.058 171.133 36.474C170.613 36.89 170.197 37.462 169.885 38.19C169.59 38.9007 169.443 39.698 169.443 40.582V46.354C169.443 47.082 169.573 47.576 169.833 47.836C170.093 48.096 170.535 48.226 171.159 48.226V48.772C170.882 48.7547 170.466 48.7373 169.911 48.72C169.374 48.6853 168.819 48.668 168.247 48.668C167.675 48.668 167.086 48.6853 166.479 48.72C165.872 48.7373 165.422 48.7547 165.127 48.772V48.226C165.838 48.226 166.34 48.096 166.635 47.836C166.947 47.576 167.103 47.082 167.103 46.354V38.216C167.103 37.436 166.964 36.864 166.687 36.5C166.41 36.1187 165.89 35.928 165.127 35.928V35.382C165.682 35.434 166.219 35.46 166.739 35.46C167.242 35.46 167.718 35.434 168.169 35.382C168.637 35.3127 169.062 35.2173 169.443 35.096V38.164C169.894 37.0373 170.509 36.2313 171.289 35.746C172.069 35.2607 172.875 35.018 173.707 35.018ZM181.533 35.018C182.14 35.018 182.668 35.1047 183.119 35.278C183.57 35.4513 183.942 35.694 184.237 36.006C184.566 36.3527 184.792 36.8033 184.913 37.358C185.034 37.9127 185.095 38.5973 185.095 39.412V46.354C185.095 47.082 185.242 47.576 185.537 47.836C185.849 48.096 186.36 48.226 187.071 48.226V48.772C186.776 48.7547 186.326 48.7373 185.719 48.72C185.112 48.6853 184.523 48.668 183.951 48.668C183.379 48.668 182.816 48.6853 182.261 48.72C181.724 48.7373 181.316 48.7547 181.039 48.772V48.226C181.663 48.226 182.105 48.096 182.365 47.836C182.625 47.576 182.755 47.082 182.755 46.354V38.84C182.755 38.3027 182.72 37.8087 182.651 37.358C182.582 36.9073 182.408 36.5433 182.131 36.266C181.854 35.9887 181.403 35.85 180.779 35.85C180.103 35.85 179.496 36.058 178.959 36.474C178.439 36.89 178.023 37.4533 177.711 38.164C177.416 38.8747 177.269 39.672 177.269 40.556L177.191 38.138C177.659 36.942 178.292 36.1273 179.089 35.694C179.886 35.2433 180.701 35.018 181.533 35.018Z" fill="#F4F4F4"/>
<path d="M194.525 35.018C196.05 35.018 197.238 35.486 198.087 36.422C198.954 37.3407 199.387 38.7793 199.387 40.738H190.209L190.183 40.244H196.891C196.926 39.3947 196.856 38.6147 196.683 37.904C196.51 37.176 196.232 36.5953 195.851 36.162C195.487 35.7287 195.01 35.512 194.421 35.512C193.624 35.512 192.913 35.9107 192.289 36.708C191.682 37.5053 191.318 38.7707 191.197 40.504L191.275 40.608C191.24 40.868 191.214 41.154 191.197 41.466C191.18 41.778 191.171 42.09 191.171 42.402C191.171 43.5807 191.362 44.5947 191.743 45.444C192.124 46.2933 192.618 46.9433 193.225 47.394C193.849 47.8273 194.49 48.044 195.149 48.044C195.669 48.044 196.163 47.966 196.631 47.81C197.099 47.6367 197.532 47.3593 197.931 46.978C198.33 46.5967 198.676 46.0853 198.971 45.444L199.491 45.652C199.3 46.224 198.988 46.7787 198.555 47.316C198.122 47.8533 197.576 48.2953 196.917 48.642C196.258 48.9713 195.496 49.136 194.629 49.136C193.381 49.136 192.306 48.85 191.405 48.278C190.521 47.706 189.836 46.9173 189.351 45.912C188.883 44.8893 188.649 43.7193 188.649 42.402C188.649 40.8767 188.892 39.568 189.377 38.476C189.862 37.3667 190.547 36.5173 191.431 35.928C192.315 35.3213 193.346 35.018 194.525 35.018Z" fill="#F4F4F4"/>
<path d="M215.062 30.52C215.721 30.52 216.267 30.598 216.7 30.754C217.133 30.8927 217.489 31.0747 217.766 31.3C217.991 31.4733 218.173 31.664 218.312 31.872C218.451 32.08 218.555 32.288 218.624 32.496C218.693 32.704 218.728 32.9033 218.728 33.094C218.728 33.5273 218.572 33.8653 218.26 34.108C217.965 34.3507 217.636 34.472 217.272 34.472C216.925 34.472 216.613 34.3593 216.336 34.134C216.059 33.9087 215.92 33.588 215.92 33.172C215.92 32.7907 216.05 32.47 216.31 32.21C216.57 31.9327 216.899 31.7767 217.298 31.742C217.229 31.5167 217.012 31.326 216.648 31.17C216.301 30.9967 215.859 30.91 215.322 30.91C214.438 30.91 213.71 31.1787 213.138 31.716C212.583 32.236 212.306 32.9987 212.306 34.004C212.306 34.4893 212.393 34.9833 212.566 35.486C212.757 35.9887 213.112 36.4827 213.632 36.968C213.927 36.916 214.23 36.8813 214.542 36.864C214.854 36.8293 215.088 36.812 215.244 36.812C215.556 36.812 215.807 36.864 215.998 36.968C216.189 37.072 216.284 37.2193 216.284 37.41C216.284 37.566 216.215 37.6873 216.076 37.774C215.955 37.8607 215.781 37.904 215.556 37.904C215.227 37.904 214.88 37.8347 214.516 37.696C214.152 37.54 213.866 37.4187 213.658 37.332C212.653 37.6267 211.838 38.112 211.214 38.788C210.59 39.4467 210.278 40.3827 210.278 41.596C210.278 42.792 210.59 43.806 211.214 44.638C211.838 45.47 212.67 46.1113 213.71 46.562C214.767 46.9953 215.946 47.212 217.246 47.212C218.165 47.212 219.031 47.108 219.846 46.9C220.678 46.6747 221.406 46.354 222.03 45.938C222.671 45.522 223.174 45.028 223.538 44.456C223.902 43.8667 224.084 43.1993 224.084 42.454C224.084 42.1247 224.015 41.7087 223.876 41.206C223.737 40.686 223.451 40.1833 223.018 39.698C222.585 39.1953 221.917 38.8053 221.016 38.528L221.328 38.268C222.593 38.6493 223.495 39.2647 224.032 40.114C224.569 40.946 224.838 41.882 224.838 42.922C224.838 43.962 224.526 44.9587 223.902 45.912C223.278 46.8653 222.377 47.6453 221.198 48.252C220.019 48.8413 218.589 49.136 216.908 49.136C215.781 49.136 214.707 48.9887 213.684 48.694C212.679 48.3993 211.786 47.9747 211.006 47.42C210.226 46.848 209.611 46.1633 209.16 45.366C208.709 44.5687 208.484 43.6673 208.484 42.662C208.484 41.726 208.666 40.9287 209.03 40.27C209.394 39.594 209.845 39.0393 210.382 38.606C210.919 38.1727 211.457 37.8433 211.994 37.618C212.531 37.3753 212.965 37.2107 213.294 37.124C212.722 36.864 212.237 36.5607 211.838 36.214C211.457 35.85 211.162 35.46 210.954 35.044C210.763 34.6107 210.668 34.186 210.668 33.77C210.668 33.354 210.763 32.9553 210.954 32.574C211.145 32.1753 211.422 31.82 211.786 31.508C212.15 31.196 212.601 30.9533 213.138 30.78C213.693 30.6067 214.334 30.52 215.062 30.52ZM224.526 30C225.601 30 226.502 30.312 227.23 30.936C227.958 31.5427 228.322 32.4007 228.322 33.51C228.322 34.0993 228.209 34.628 227.984 35.096C227.776 35.5467 227.481 35.9453 227.1 36.292C226.736 36.6387 226.32 36.9247 225.852 37.15C225.453 37.3407 224.925 37.5487 224.266 37.774C223.625 37.9993 222.931 38.2247 222.186 38.45C221.458 38.6753 220.756 38.9007 220.08 39.126C219.421 39.334 218.884 39.516 218.468 39.672C217.827 39.9147 217.281 40.218 216.83 40.582C216.397 40.9287 216.18 41.3793 216.18 41.934C216.18 42.3847 216.31 42.766 216.57 43.078C216.83 43.39 217.142 43.624 217.506 43.78C217.887 43.936 218.243 44.014 218.572 44.014C218.728 44.014 218.919 43.9967 219.144 43.962C219.387 43.91 219.603 43.8407 219.794 43.754C219.985 43.6673 220.097 43.5633 220.132 43.442C219.855 43.39 219.577 43.2687 219.3 43.078C219.04 42.87 218.91 42.5493 218.91 42.116C218.91 41.7 219.049 41.3707 219.326 41.128C219.603 40.8853 219.941 40.764 220.34 40.764C220.756 40.764 221.085 40.894 221.328 41.154C221.588 41.414 221.718 41.752 221.718 42.168C221.718 42.6533 221.553 43.0693 221.224 43.416C220.912 43.7453 220.513 43.9967 220.028 44.17C219.56 44.326 219.092 44.404 218.624 44.404C218.139 44.404 217.645 44.3 217.142 44.092C216.639 43.884 216.223 43.5633 215.894 43.13C215.565 42.6793 215.4 42.09 215.4 41.362C215.4 40.7553 215.53 40.218 215.79 39.75C216.067 39.282 216.475 38.866 217.012 38.502C217.549 38.138 218.208 37.826 218.988 37.566C219.508 37.3927 220.141 37.202 220.886 36.994C221.631 36.786 222.394 36.5607 223.174 36.318C223.971 36.0753 224.691 35.8067 225.332 35.512C226.199 35.1133 226.788 34.706 227.1 34.29C227.412 33.874 227.568 33.4493 227.568 33.016C227.568 32.5133 227.429 32.0713 227.152 31.69C226.875 31.2913 226.502 30.9793 226.034 30.754C225.583 30.5113 225.089 30.39 224.552 30.39C224.344 30.39 224.171 30.4073 224.032 30.442C223.893 30.4767 223.807 30.5373 223.772 30.624C224.015 30.7453 224.197 30.9187 224.318 31.144C224.439 31.3693 224.5 31.5947 224.5 31.82C224.5 32.184 224.353 32.4873 224.058 32.73C223.781 32.9727 223.443 33.094 223.044 33.094C222.715 33.094 222.403 32.99 222.108 32.782C221.813 32.5567 221.666 32.2273 221.666 31.794C221.666 31.3433 221.813 30.988 222.108 30.728C222.42 30.468 222.793 30.286 223.226 30.182C223.677 30.0607 224.11 30 224.526 30Z" fill="#F4F4F4"/>
<path d="M243.504 30.364C246.607 30.364 248.912 31.144 250.42 32.704C251.928 34.2467 252.682 36.4653 252.682 39.36C252.682 41.2493 252.31 42.9047 251.564 44.326C250.836 45.73 249.77 46.822 248.366 47.602C246.962 48.382 245.264 48.772 243.27 48.772C243.01 48.772 242.664 48.7633 242.23 48.746C241.797 48.7287 241.346 48.72 240.878 48.72C240.428 48.7027 240.012 48.694 239.63 48.694C239.024 48.694 238.426 48.7027 237.836 48.72C237.247 48.72 236.77 48.7373 236.406 48.772V48.252C236.996 48.2173 237.438 48.148 237.732 48.044C238.044 47.94 238.252 47.732 238.356 47.42C238.46 47.108 238.512 46.64 238.512 46.016V33.12C238.512 32.4787 238.46 32.0107 238.356 31.716C238.252 31.404 238.044 31.196 237.732 31.092C237.438 30.9707 236.996 30.9013 236.406 30.884V30.364C236.77 30.3813 237.247 30.4073 237.836 30.442C238.426 30.4593 239.006 30.4593 239.578 30.442C240.185 30.4247 240.87 30.4073 241.632 30.39C242.395 30.3727 243.019 30.364 243.504 30.364ZM242.854 30.832C242.057 30.832 241.537 30.9793 241.294 31.274C241.052 31.5687 240.93 32.1667 240.93 33.068V46.068C240.93 46.9693 241.052 47.5673 241.294 47.862C241.554 48.1567 242.083 48.304 242.88 48.304C244.77 48.304 246.234 47.966 247.274 47.29C248.314 46.5967 249.042 45.5913 249.458 44.274C249.874 42.9567 250.082 41.3533 250.082 39.464C250.082 37.5227 249.848 35.9193 249.38 34.654C248.93 33.3713 248.176 32.418 247.118 31.794C246.078 31.1527 244.657 30.832 242.854 30.832Z" fill="#F4F4F4"/>
<path d="M261.175 35.018C262.701 35.018 263.888 35.486 264.737 36.422C265.604 37.3407 266.037 38.7793 266.037 40.738H256.859L256.833 40.244H263.541C263.576 39.3947 263.507 38.6147 263.333 37.904C263.16 37.176 262.883 36.5953 262.501 36.162C262.137 35.7287 261.661 35.512 261.071 35.512C260.274 35.512 259.563 35.9107 258.939 36.708C258.333 37.5053 257.969 38.7707 257.847 40.504L257.925 40.608C257.891 40.868 257.865 41.154 257.847 41.466C257.83 41.778 257.821 42.09 257.821 42.402C257.821 43.5807 258.012 44.5947 258.393 45.444C258.775 46.2933 259.269 46.9433 259.875 47.394C260.499 47.8273 261.141 48.044 261.799 48.044C262.319 48.044 262.813 47.966 263.281 47.81C263.749 47.6367 264.183 47.3593 264.581 46.978C264.98 46.5967 265.327 46.0853 265.621 45.444L266.141 45.652C265.951 46.224 265.639 46.7787 265.205 47.316C264.772 47.8533 264.226 48.2953 263.567 48.642C262.909 48.9713 262.146 49.136 261.279 49.136C260.031 49.136 258.957 48.85 258.055 48.278C257.171 47.706 256.487 46.9173 256.001 45.912C255.533 44.8893 255.299 43.7193 255.299 42.402C255.299 40.8767 255.542 39.568 256.027 38.476C256.513 37.3667 257.197 36.5173 258.081 35.928C258.965 35.3213 259.997 35.018 261.175 35.018Z" fill="#F4F4F4"/>
<path d="M274.51 35.018C275.064 35.018 275.602 35.0873 276.122 35.226C276.642 35.3647 277.11 35.5727 277.526 35.85C277.924 36.11 278.228 36.4133 278.436 36.76C278.644 37.0893 278.748 37.4533 278.748 37.852C278.748 38.32 278.618 38.684 278.358 38.944C278.098 39.1867 277.768 39.308 277.37 39.308C276.988 39.308 276.65 39.1953 276.356 38.97C276.078 38.7447 275.94 38.424 275.94 38.008C275.94 37.6093 276.044 37.2887 276.252 37.046C276.477 36.8033 276.737 36.6473 277.032 36.578C276.858 36.266 276.546 36.006 276.096 35.798C275.662 35.59 275.194 35.486 274.692 35.486C274.258 35.486 273.825 35.59 273.392 35.798C272.958 36.006 272.56 36.3527 272.196 36.838C271.832 37.306 271.537 37.956 271.312 38.788C271.086 39.6027 270.974 40.6253 270.974 41.856C270.974 43.3813 271.147 44.5947 271.494 45.496C271.84 46.3973 272.291 47.0473 272.846 47.446C273.418 47.8273 274.042 48.018 274.718 48.018C275.168 48.018 275.628 47.9313 276.096 47.758C276.564 47.5847 277.006 47.3073 277.422 46.926C277.838 46.5273 278.193 45.9987 278.488 45.34L278.982 45.522C278.808 46.0767 278.522 46.64 278.124 47.212C277.725 47.7667 277.205 48.226 276.564 48.59C275.922 48.954 275.134 49.136 274.198 49.136C273.123 49.136 272.152 48.8587 271.286 48.304C270.419 47.7493 269.726 46.9607 269.206 45.938C268.703 44.898 268.452 43.6673 268.452 42.246C268.452 40.8247 268.703 39.5767 269.206 38.502C269.726 37.41 270.445 36.5607 271.364 35.954C272.282 35.33 273.331 35.018 274.51 35.018Z" fill="#F4F4F4"/>
<path d="M287.024 35.018C288.134 35.018 289.13 35.2607 290.014 35.746C290.898 36.2313 291.6 36.994 292.12 38.034C292.658 39.074 292.926 40.426 292.926 42.09C292.926 43.754 292.658 45.106 292.12 46.146C291.6 47.1687 290.898 47.9227 290.014 48.408C289.13 48.8933 288.134 49.136 287.024 49.136C285.932 49.136 284.936 48.8933 284.034 48.408C283.15 47.9227 282.44 47.1687 281.902 46.146C281.382 45.106 281.122 43.754 281.122 42.09C281.122 40.426 281.382 39.074 281.902 38.034C282.44 36.994 283.15 36.2313 284.034 35.746C284.936 35.2607 285.932 35.018 287.024 35.018ZM287.024 35.538C286.036 35.538 285.222 36.0493 284.58 37.072C283.956 38.0947 283.644 39.7673 283.644 42.09C283.644 44.4127 283.956 46.0853 284.58 47.108C285.222 48.1133 286.036 48.616 287.024 48.616C288.012 48.616 288.818 48.1133 289.442 47.108C290.084 46.0853 290.404 44.4127 290.404 42.09C290.404 39.7673 290.084 38.0947 289.442 37.072C288.818 36.0493 288.012 35.538 287.024 35.538Z" fill="#F4F4F4"/>
</svg>
